<svg width="200" height="115" viewBox="0 0 200 115" fill="none" xmlns="http://www.w3.org/2000/svg"><g clip-path="url(#clip0_2_2763)"><path d="M103.2 3.3a1.6 1.6 0 1 0 0-3.3 1.6 1.6 0 0 0 0 3.3ZM103.2 9.8a1.6 1.6 0 1 0 0-3.3 1.6 1.6 0 0 0 0 3.3ZM110 3.3a1.6 1.6 0 1 0 .1-3.3 1.6 1.6 0 0 0 0 3.3ZM110 9.8a1.6 1.6 0 1 0 .1-3.3 1.6 1.6 0 0 0 0 3.3ZM117 3.3a1.6 1.6 0 1 0 0-3.3 1.6 1.6 0 0 0 0 3.3ZM117 9.8a1.6 1.6 0 1 0 0-3.3 1.6 1.6 0 0 0 0 3.3ZM117 16.4a1.6 1.6 0 1 0 0-3.3 1.6 1.6 0 0 0 0 3.3ZM117 23a1.6 1.6 0 1 0 0-3.4 1.6 1.6 0 0 0 0 3.3ZM123.8 3.3a1.6 1.6 0 1 0 0-3.3 1.6 1.6 0 0 0 0 3.3ZM123.8 9.8a1.6 1.6 0 1 0 0-3.3 1.6 1.6 0 0 0 0 3.3ZM123.8 16.4a1.6 1.6 0 1 0 0-3.3 1.6 1.6 0 0 0 0 3.3ZM123.8 23a1.6 1.6 0 1 0 0-3.4 1.6 1.6 0 0 0 0 3.3ZM130.7 3.3a1.6 1.6 0 1 0 0-3.3 1.6 1.6 0 0 0 0 3.3ZM130.7 9.8a1.6 1.6 0 1 0 0-3.3 1.6 1.6 0 0 0 0 3.3ZM137.5 3.3a1.6 1.6 0 1 0 0-3.3 1.6 1.6 0 0 0 0 3.3ZM137.5 9.8a1.6 1.6 0 1 0 0-3.3 1.6 1.6 0 0 0 0 3.3Z" fill="#E7E7E7"/><path d="M187.6 86.6h-12.2c0 .4-12.5.6-12.5.6l-.6.6c-.4.5-.7 1.2-.7 2v.5a3.2 3.2 0 0 0 3.2 3.2h22.8a3.2 3.2 0 0 0 3.2-3.2v-.5a3.2 3.2 0 0 0-3.2-3.2Z" fill="#3F3D56"/><path d="M178 93.3h-3.3v21.4h3.3V93.3Z" fill="#3F3D56"/><path d="M187.4 114.5c0 .4-5 .2-11.2.2-6.2 0-11.2.2-11.2-.2 0-.3 5-3.1 11.2-3.1 6.2 0 11.2 2.8 11.2 3.1Z" fill="#3F3D56"/><path d="M159.7 111.7h-3.1l-1.5-12h4.6v12Z" fill="#FEE6C2"/><path d="M154.4 110.8h6v3.8h-9.8a3.8 3.8 0 0 1 3.8-3.8Z" fill="#050038"/><path d="m154.8 110-3-1 2.3-11.8 4.3 1.3-3.6 11.5Z" fill="#FEE6C2"/><path d="m150 107.6 5.7 1.8-1 3.6-9.4-3a3.8 3.8 0 0 1 4.7-2.4ZM179.3 84.5c0-.6-.2-1.2-.4-1.8l-.6-.7-1.5-1.9-1.3.1-1.7.1-.5.1V83h3.2a.6.6 0 0 1 .6.6.6.6 0 0 1-.6.7h-18.4l-.7.5c-.6.5-1.1 1.2-1.3 2l-3.6 16.2a1.2 1.2 0 0 0 .7 1.3l2.3.8.3.1a1.1 1.1 0 0 0 1.1-.7l1.8-4.8 2.8-7.3 1.1-2.9c1.3.3 12 2.7 15.6-1.1.4-.4.6-.8.8-1.3.3-.8.4-1.7.3-2.6Z" fill="#050038"/><path d="m182.4 85.2-.2-.7-2-2.6h-.2l-1.7.1-4.3.5h-.7v.5h3.2a.6.6 0 0 1 .6.6.6.6 0 0 1-.6.7h-11.2l-1.4.5c-2.4 1-4.2 2.2-4.5 3.8l-.4 1.7-1.8 7.9-.3 1.5-1.2 5v.1l.1.6a1.1 1.1 0 0 0 .7.6l2.3.9h.9l.5-.7 5-12.9.7-2c1.3.3 12 2.7 15.6-1.2.7-.7 1.1-1.7 1.1-2.8 0-.7 0-1.4-.2-2Z" fill="#050038"/><path d="m182.1 62.8-.1-.1a6.2 6.2 0 0 0-5.3-1.9l-2.5.5a6.3 6.3 0 0 0-4.3 3.7c-.3.8-.5 1.7-.5 2.5v1.6h2.9a1.4 1.4 0 0 1 1 1.4v11.8l.5.1h.2l.2.1 1.5.6h.8a.6.6 0 0 1 .6.5 32.8 32.8 0 0 1 4 1.8l.5.1a1.1 1.1 0 0 0 .8-.3 1.1 1.1 0 0 0 .4-1c-.3-2-.4-4-.3-6a68 68 0 0 1 1.2-10 6.3 6.3 0 0 0-1.6-5.4Z" fill="#3F53D9"/><path d="M171.7 63a3 3 0 0 0-3.8 1.5l-1.8 4-.2.6h6.4l.2-.4.7-1.8a3 3 0 0 0-1.5-3.9Z" fill="#3F53D9"/><path d="M177.1 58.8a6.2 6.2 0 1 0 0-12.4 6.2 6.2 0 0 0 0 12.4ZM183.3 70.5h-3.6l-.2 2.6v.5l-5.7 2.5-.5.3v4.4l.5-.1 1.6-.5 7.1-2h.1a2.8 2.8 0 0 0 2-2.7v-5h-1.3Z" fill="#FEE6C2"/><path d="M184.5 65.5a3 3 0 0 0-2-2.6 3 3 0 0 0-3.9 3l.4 6.3a1.2 1.2 0 0 0 1.2 1h2.7l.9-.1a1.1 1.1 0 0 0 .8-.5c.2-.2.3-.5.2-.8l-.3-6.3Z" fill="#3F53D9"/><path d="M174.2 82.5h-.9v.6h2.4l-1.5-.6Zm0 0h-.9v.6h2.4l-1.5-.6Zm2.3 0h-2.7v-12a1.9 1.9 0 0 0-1.9-2h-22.6a2 2 0 0 0-1.9 2v12.4a1.9 1.9 0 0 0 2 2h27.1a1.1 1.1 0 0 0 1.2-1.2 1.1 1.1 0 0 0-1.2-1.2Zm.6 1.2a.6.6 0 0 1-.6.6h-27.2A1.4 1.4 0 0 1 148 83V70.5a1.4 1.4 0 0 1 1.4-1.4h23a1.4 1.4 0 0 1 1 1.4V83h3.2a.6.6 0 0 1 .6.6Zm-3-1.2h-.8v.6h2.4l-1.5-.6Z" fill="#E7E7E7"/><path d="M160.6 78.2a1.5 1.5 0 1 0 0-3 1.5 1.5 0 0 0 0 3ZM175.8 50.1c-1.4 1.3-3.4 2.7-5.2 1.8a3 3 0 0 1-1.4-3.3c.5-2.3 2.5-3.6 4.5-4.6 2.5-1.3 5.3-2.5 8.1-2.1 2.8.3 5.6 2.6 5.5 5.5-.1 2.3-2 4.4-1.4 6.6.6 2.2 3.3 3.1 5.6 3.2 2.3.2 4.8 0 6.7 1.4 2.3 1.8 2.3 5.5.6 8a14.6 14.6 0 0 1-7.2 4.8 19 19 0 0 1-11.4 1.3c-3.8-1-7.1-4.6-6.5-8.4a13 13 0 0 1 1.9-4.6c.9-1.3 1.5-2.9 1.8-4.5a4.4 4.4 0 0 0-1.3-3.8 1.1 1.1 0 0 1-.3-1.2ZM.3 115h196.5a.3.3 0 0 0-.2-.6H.3a.3.3 0 0 0-.3.3.3.3 0 0 0 .3.3Z" fill="#050038"/><path d="M10.3 89.8v.5a3.2 3.2 0 0 0 3.1 3.2h22.9a3.2 3.2 0 0 0 3.2-3.2v-.5a3.1 3.1 0 0 0-1.3-2.6s-12.6-.2-12.6-.6H13.4a3.2 3.2 0 0 0-3.1 3.2Z" fill="#3F3D56"/><path d="M23 114.7h3.4V93.3H23v21.4Z" fill="#3F3D56"/><path d="M13.7 114.5c0 .4 5 .2 11.2.2 6.1 0 11.1.2 11.1-.2 0-.3-5-3.1-11.1-3.1-6.2 0-11.2 2.8-11.2 3.1Z" fill="#3F3D56"/><path d="M41.5 112h3.1l1.5-12h-4.6v12Z" fill="#FEE6C2"/><path d="M50.6 114.8h-9.8V111h6a3.8 3.8 0 0 1 3.8 3.8Z" fill="#050038"/><path d="m46.4 110.2 3-1-2.2-11.8-4.4 1.3 3.6 11.5Z" fill="#FEE6C2"/><path d="m56 110.2-9.4 3-1.1-3.7 5.7-1.8a3.8 3.8 0 0 1 4.7 2.5ZM44.3 104.7l-5.7-15c-1.3.3-12 2.7-15.6-1.1-1.2-1.3-1.5-3.2-.7-5.7l2.1-2.6c.9 0 19.5 1.1 20.7 6.7 1.1 4.7 3 13.6 3.7 16.2a1.1 1.1 0 0 1-.8 1.3l-2.2.8-.4.1a1.1 1.1 0 0 1-1.1-.7Z" fill="#050038"/><path d="m41 106.4-5.7-14.9c-1.3.3-12 2.7-15.6-1.1-1.2-1.4-1.5-3.3-.7-5.7l2.1-2.6c.9 0 19.5 1 20.7 6.7l3.7 16.1a1.1 1.1 0 0 1-.8 1.3l-2.2 1a1.1 1.1 0 0 1-1.5-.8Z" fill="#050038"/><path d="M35.9 77.5a4.9 4.9 0 0 1-4.2-2.4l-1.8-3 4.3-2.4 1.8 2.5 12.4-1.3a2.7 2.7 0 0 1 2.2-1.4 2.8 2.8 0 0 1 3 2.6 2.8 2.8 0 0 1-4.7 2.2l-11.9 3-1.1.2Z" fill="#FEE6C2"/><path d="M19 85.5a1.1 1.1 0 0 1-.5-1c.7-4.7-.1-11.4-1-16.2a6.3 6.3 0 0 1 7-7.3l2.6.5a6.2 6.2 0 0 1 4.7 6.2A70 70 0 0 0 33 80.8a1.1 1.1 0 0 1-.6.7l-.4.2a37.2 37.2 0 0 0-12.4 4c-.3 0-.5 0-.7-.2Z" fill="#3F53D9"/><path d="M31.1 73.5a1.1 1.1 0 0 1-.6-.6L28 67a3 3 0 1 1 5.3-2.3l2.6 5.8a1.1 1.1 0 0 1-.6 1.5L32 73.5a1.1 1.1 0 0 1-.9 0Z" fill="#3F53D9"/><path d="M24 59a6.2 6.2 0 1 0 0-12.4A6.2 6.2 0 0 0 24 59Z" fill="#FEE6C2"/><path d="M20.3 58.3a1 1 0 0 1-1.4.1 11.3 11.3 0 0 1-3.2-4.2 7.5 7.5 0 0 1 0-6c.8-1.5 2-2.7 3.5-3.4.6-.3 1.1-.6 1.8-.7a2.3 2.3 0 0 1 1.8.3 2 2 0 0 1 .7 1.9c.6-.9 1.5-1.5 2.5-1.9.6-.3 1.3-.3 2-.1a3.5 3.5 0 0 1 1.8 2.2c.3.7.5 1.5.4 2.3a2.8 2.8 0 0 1-1.1 2 3 3 0 0 1-2.5.2l-2.6-.7a2.4 2.4 0 0 0-2.3.9c-.4.6-.5 1.2-.6 2l-.3 3.5c0 .5-.2 1-.4 1.5v.1Z" fill="#050038"/><path d="M42.9 96.7H32.7a1 1 0 0 1-1-1.3 26 26 0 0 0 0-12.6 1.1 1.1 0 0 1 .6-.7l.4-.1H43a1 1 0 0 1 1 .9c.7 4.3.7 8.6 0 13a1 1 0 0 1-1 .8Z" fill="#ABB2E7"/><path d="M35.1 87.5v-.3a.8.8 0 0 1 .8-.8h5.3a.8.8 0 0 1 .7.8v.3a.8.8 0 0 1-.7.7h-5.3a.8.8 0 0 1-.8-.7ZM35.1 90.6v-.3a.8.8 0 0 1 .8-.8h5.3a.8.8 0 0 1 .7.8v.3a.8.8 0 0 1-.7.8h-5.3a.8.8 0 0 1-.8-.8Z" fill="#fff"/><path d="M38.4 78.4a1.1 1.1 0 0 1-.2-1 26.4 26.4 0 0 0 0-12.7 1.1 1.1 0 0 1 1-1h10.3a1.1 1.1 0 0 1 1.1 1c.7 4.4.7 8.8 0 13.2a1.1 1.1 0 0 1-1 .9H39.1a1.1 1.1 0 0 1-.8-.4Z" fill="#F5A040"/><path d="M47.5 69.3h-5.4a.8.8 0 0 1-.8-.7v-.4a.8.8 0 0 1 .8-.7h5.4a.8.8 0 0 1 .8.7v.4a.8.8 0 0 1-.8.7ZM47.5 72.5h-5.4a.8.8 0 0 1-.8-.7v-.4a.8.8 0 0 1 .8-.7h5.4a.8.8 0 0 1 .8.7v.4a.8.8 0 0 1-.8.7Z" fill="#fff"/><path d="M33.6 84A2.8 2.8 0 0 1 32 82l-13.3-3.7a2.8 2.8 0 0 1-2-2.7v-5h4.9l.3 3.1L33.2 79l.3-.1a2.8 2.8 0 1 1 .1 5.2Z" fill="#FEE6C2"/><path d="M16.7 72.9a1.1 1.1 0 0 1-.3-.9l.4-6.3a3 3 0 0 1 5.8.4l-.4 6.3a1.1 1.1 0 0 1-1.2 1l-3.6-.2a1.1 1.1 0 0 1-.7-.3Z" fill="#3F53D9"/><path d="M73.8 38.8H52.9a2.3 2.3 0 0 1-2.3-2.2V14a2.3 2.3 0 0 1 2.3-2.3h20.9A2.3 2.3 0 0 1 76 14v22.6a2.3 2.3 0 0 1-2.3 2.2ZM52.9 12.2a1.8 1.8 0 0 0-1.7 1.8v22.6a1.8 1.8 0 0 0 1.7 1.7h20.9a1.8 1.8 0 0 0 1.7-1.7V14a1.8 1.8 0 0 0-1.8-1.8H53ZM111.8 38.8H91a2.3 2.3 0 0 1-2.3-2.2V14a2.3 2.3 0 0 1 2.3-2.3h20.8a2.3 2.3 0 0 1 2.3 2.3v22.6a2.3 2.3 0 0 1-2.3 2.2ZM91 12.2a1.8 1.8 0 0 0-1.8 1.8v22.6a1.8 1.8 0 0 0 1.8 1.7h20.8a1.8 1.8 0 0 0 1.8-1.7V14a1.8 1.8 0 0 0-1.8-1.8H91Z" fill="#E7E7E7"/><path d="M57.1 21h-2a1.1 1.1 0 0 1-1.1-1v-2a1.1 1.1 0 0 1 1.1-1.2h2a1.1 1.1 0 0 1 1.2 1.1v2a1.1 1.1 0 0 1-1.2 1.2Z" fill="#F5A040"/><path d="M57.1 27.4h-2a1.1 1.1 0 0 1-1.1-1.1v-2A1.1 1.1 0 0 1 55 23h2a1.1 1.1 0 0 1 1.2 1.2v2a1.1 1.1 0 0 1-1.2 1.1Z" fill="#E7E7E7"/><path d="M72 19.8h-9.5a.8.8 0 0 1-.8-.7v-.3a.8.8 0 0 1 .8-.8H72a.8.8 0 0 1 .7.8v.3a.8.8 0 0 1-.7.7Z" fill="#F5A040"/><path d="M95.4 20.7h-2a1.1 1.1 0 0 1-1.2-1.2v-2a1.1 1.1 0 0 1 1.1-1.1h2a1.1 1.1 0 0 1 1.2 1.1v2a1.1 1.1 0 0 1-1.1 1.2ZM110.2 19.4h-9.5a.8.8 0 0 1-.7-.7v-.3a.8.8 0 0 1 .7-.8h9.5a.8.8 0 0 1 .8.8v.3a.8.8 0 0 1-.2.5.8.8 0 0 1-.6.2Z" fill="#E7E7E7"/><path d="M110.2 25.5H92.6a.8.8 0 0 1-.7-.7v-.3a.8.8 0 0 1 .7-.8h17.6a.8.8 0 0 1 .8.8v.3a.8.8 0 0 1-.8.7Z" fill="#F5A040"/><path d="M110.2 29.9H92.6a.8.8 0 0 1-.7-.8v-.3a.8.8 0 0 1 .7-.8h17.6a.8.8 0 0 1 .8.8v.3a.8.8 0 0 1-.8.8ZM110.2 34.2H92.6a.8.8 0 0 1-.7-.8v-.3a.8.8 0 0 1 .7-.8h17.6a.8.8 0 0 1 .8.8v.3a.8.8 0 0 1-.8.8ZM150 38.8h-21a2.3 2.3 0 0 1-2.2-2.2V14a2.3 2.3 0 0 1 2.3-2.3h20.8a2.3 2.3 0 0 1 2.3 2.3v22.6a2.3 2.3 0 0 1-2.3 2.2Zm-21-26.6a1.8 1.8 0 0 0-1.7 1.8v22.6a1.8 1.8 0 0 0 1.8 1.7h20.8a1.8 1.8 0 0 0 1.8-1.7V14a1.8 1.8 0 0 0-1.8-1.8h-20.8Z" fill="#E7E7E7"/><path d="M148.3 19.4h-9.5a.8.8 0 0 1-.7-.7v-.3a.8.8 0 0 1 .7-.8h9.5a.8.8 0 0 1 .8.8v.3a.8.8 0 0 1-.8.7ZM148.3 25.5h-17.6a.8.8 0 0 1-.8-.7v-.3a.8.8 0 0 1 .8-.8h17.6a.8.8 0 0 1 .8.8v.3a.8.8 0 0 1-.8.7ZM148.3 29.9h-17.6a.8.8 0 0 1-.8-.8v-.3a.8.8 0 0 1 .8-.8h17.6a.8.8 0 0 1 .8.8v.3a.8.8 0 0 1-.8.8ZM148.3 34.2h-17.6a.8.8 0 0 1-.8-.8v-.3a.8.8 0 0 1 .8-.8h17.6a.8.8 0 0 1 .8.8v.3a.8.8 0 0 1-.8.8ZM72 26.2h-9.5a.8.8 0 0 1-.8-.8v-.3a.8.8 0 0 1 .8-.8H72a.8.8 0 0 1 .7.8v.3a.8.8 0 0 1-.7.8ZM57.1 33.8h-2a1.1 1.1 0 0 1-1.1-1.2v-2a1.1 1.1 0 0 1 1.1-1.1h2a1.1 1.1 0 0 1 1.2 1.1v2a1.1 1.1 0 0 1-1.2 1.2ZM72 32.5h-9.5a.8.8 0 0 1-.8-.7v-.3a.8.8 0 0 1 .8-.8H72a.8.8 0 0 1 .7.8v.3a.8.8 0 0 1-.7.7Z" fill="#E7E7E7"/><path d="M134.7 18.3a2.3 2.3 0 0 0-2.3-2.3v2.3h2.3Z" fill="#F5A040"/><path d="M132.1 18.5v-2.3a2.3 2.3 0 1 0 2.3 2.3h-2.3Z" fill="#E7E7E7"/></g><defs><clipPath id="clip0_2_2763"><path fill="#fff" d="M0 0h200v115H0z"/></clipPath></defs></svg>